<svg width="2493" height="1011" xmlns="http://www.w3.org/2000/svg"><g fill="none" fill-rule="evenodd"><path d="M1485.994 126H512.006a27.923 27.923 0 0 0-19.803 8.197c-5.069 5.067-8.203 12.066-8.203 19.797v667.012c0 7.727 3.135 14.727 8.205 19.795 5.068 5.065 12.069 8.199 19.801 8.199h973.988a27.923 27.923 0 0 0 19.803-8.197c5.069-5.067 8.203-12.066 8.203-19.797V153.994c0-7.727-3.135-14.727-8.205-19.795-5.068-5.065-12.069-8.199-19.801-8.199Z" stroke="#141C3A" stroke-width="8" fill="#FFF"/><path d="M1438.007 188H558.993a11.95 11.95 0 0 0-8.482 3.52 11.975 11.975 0 0 0-3.511 8.486v496.988c0 3.314 1.342 6.315 3.51 8.487a11.95 11.95 0 0 0 8.483 3.519h879.014c3.31 0 6.31-1.344 8.482-3.52a11.975 11.975 0 0 0 3.511-8.486V200.006c0-3.314-1.342-6.315-3.51-8.487a11.95 11.95 0 0 0-8.483-3.519Z" stroke="#6E07F3" stroke-width="8" fill="#6E07F3"/><path d="M1073.35 849h-147.7l-9.971 129h167.642l-9.971-129Z" stroke="#141C3A" stroke-width="8" fill="#FFF"/><path d="M1143.998 1007H855.002a.996.996 0 0 1-.707-.292 1.01 1.01 0 0 1-.295-.717V992.5c0-4.005 1.623-7.63 4.248-10.253A14.464 14.464 0 0 1 868.506 978h261.988c4.005 0 7.632 1.624 10.257 4.248A14.45 14.45 0 0 1 1145 992.5v13.49a.998.998 0 0 1-1.002 1.01Z" stroke="#141C3A" stroke-width="8" fill="#FFF"/><circle stroke="#141C3A" stroke-width="8" cx="999.5" cy="784.5" r="18.5"/><rect stroke="#141C3A" stroke-width="8" fill="#FFF" x="389" y="618" width="198" height="389" rx="24"/><path d="M587 662H389v287.3h198V662Z" stroke="#141C3A" stroke-width="8" fill="#141C3A"/><rect fill="#141C3A" x="441" y="636" width="95" height="8" rx="4"/><rect fill="#141C3A" x="477" y="966" width="22.8" height="22.8" rx="11.4"/><circle stroke="#6E07F3" stroke-width="8" fill="#6E07F3" cx="445" cy="805" r="15"/><g transform="translate(480 779)" fill="#FFF"><rect width="70" height="8" rx="4"/><rect y="22" width="50" height="8" rx="4"/><rect y="44" width="30" height="8" rx="4"/></g><circle stroke="#141C3A" stroke-width="8" fill="#5BE9B9" cx="287.5" cy="653.5" r="153.5"/><path d="M1940.01 468h-684.02a27.897 27.897 0 0 0-19.793 8.2A27.917 27.917 0 0 0 1228 496v441c0 7.728 3.134 14.729 8.2 19.797 5.065 5.068 12.062 8.203 19.79 8.203h684.02a27.897 27.897 0 0 0 19.793-8.2A27.917 27.917 0 0 0 1968 937V496c0-7.728-3.134-14.729-8.2-19.797-5.065-5.068-12.062-8.203-19.79-8.203Z" stroke="#141C3A" stroke-width="8" fill="#FFF"/><path d="M2018.008 965h-840.016a.985.985 0 0 0-.7.29 1 1 0 0 0-.292.71v20c0 5.8 2.35 11.05 6.152 14.85a20.946 20.946 0 0 0 14.855 6.15h799.986c5.801 0 11.053-2.35 14.855-6.151A20.93 20.93 0 0 0 2019 986v-20a1 1 0 0 0-.992-1Z" stroke="#141C3A" stroke-width="8" fill="#FFF"/><path d="M1653.29 965.449h-111.983a31.078 31.078 0 0 0 9.403 13.028 30.86 30.86 0 0 0 19.584 6.971h54.01a30.856 30.856 0 0 0 19.582-6.972 31.09 31.09 0 0 0 9.404-13.027Z" stroke="#141C3A" stroke-width="8" fill="#FFF"/><rect fill="#5BE9B9" x="1257" y="511" width="681.407" height="411.85" rx="8"/><g transform="translate(695)"><circle fill="#293347" cx="282" cy="197" r="5"/><path d="M450 59H4v435.001a19.93 19.93 0 0 0 5.858 14.142A19.953 19.953 0 0 0 24.008 514h405.983a19.95 19.95 0 0 0 14.15-5.858 19.931 19.931 0 0 0 5.859-14.14V59Z" stroke="#141C3A" stroke-width="8" fill="#141C3A"/><path d="M429.991 4H24.01a19.948 19.948 0 0 0-14.15 5.859A19.94 19.94 0 0 0 4 24.004V51h446V24.004a19.94 19.94 0 0 0-5.861-14.144A19.947 19.947 0 0 0 429.99 4Z" stroke="#141C3A" stroke-width="8" fill="#FFF"/><circle fill="#141C3A" cx="39" cy="28" r="9"/><circle fill="#6E07F3" cx="69" cy="28" r="9"/><circle fill="#5BE9B9" cx="99" cy="28" r="9"/><g transform="translate(52 143)"><rect fill="#535B6B" opacity=".54" y="200" width="18" height="8" rx="4"/><rect fill="#535B6B" opacity=".54" width="18" height="8" rx="4"/><path d="M34 0h27a4 4 0 1 1 0 8H34a4 4 0 1 1 0-8Z" fill="#6E07F3"/><path d="M79 0h27a4 4 0 1 1 0 8H79a4 4 0 1 1 0-8Z" fill="#5BE9B9"/><path d="M124 0h50a4 4 0 1 1 0 8h-50a4 4 0 1 1 0-8ZM192 0h74a4 4 0 1 1 0 8h-74a4 4 0 1 1 0-8Z" fill="#6E07F3"/><rect fill="#535B6B" opacity=".54" y="40" width="18" height="8" rx="4"/><rect fill="#535B6B" opacity=".54" y="80" width="18" height="8" rx="4"/><rect fill="#535B6B" opacity=".54" y="120" width="18" height="8" rx="4"/><rect fill="#535B6B" opacity=".54" y="160" width="18" height="8" rx="4"/><rect fill="#535B6B" opacity=".54" y="240" width="18" height="8" rx="4"/><rect fill="#535B6B" opacity=".54" y="280" width="18" height="8" rx="4"/><rect fill="#6E07F3" x="30" y="40" width="70" height="8" rx="4"/><rect fill="#5BE9B9" x="110" y="40" width="120" height="8" rx="4"/><rect fill="#6E07F3" x="240" y="40" width="50" height="8" rx="4"/><rect fill="#5BE9B9" x="30" y="80" width="50" height="8" rx="4"/><rect fill="#6E07F3" x="90" y="80" width="50" height="8" rx="4"/><rect fill="#6E07F3" x="150" y="80" width="30" height="8" rx="4"/><rect fill="#6E07F3" x="30" y="120" width="100" height="8" rx="4"/><rect fill="#6E07F3" x="140" y="120" width="70" height="8" rx="4"/><rect fill="#6E07F3" x="30" y="160" width="100" height="8" rx="4"/><rect fill="#5BE9B9" x="140" y="160" width="130" height="8" rx="4"/><rect fill="#6E07F3" x="30" y="200" width="70" height="8" rx="4"/><rect fill="#5BE9B9" x="110" y="200" width="70" height="8" rx="4"/><rect fill="#6E07F3" x="190" y="200" width="40" height="8" rx="4"/><rect fill="#6E07F3" x="30" y="240" width="130" height="8" rx="4"/><rect fill="#5BE9B9" x="30" y="280" width="60" height="8" rx="4"/></g></g><g transform="translate(1598 319)"><path d="M544 46H-4v389.996A27.912 27.912 0 0 0 4.203 455.8 27.926 27.926 0 0 0 24.01 464h491.98c7.739 0 14.74-3.134 19.807-8.2A27.914 27.914 0 0 0 544 435.996V46Z" stroke="#141C3A" stroke-width="8" fill="#FFF"/><path d="M515.99-4H24.01A27.928 27.928 0 0 0 4.204 4.196 27.899 27.899 0 0 0-4 23.993V54h548V23.993c0-7.73-3.135-14.73-8.205-19.795A27.93 27.93 0 0 0 515.99-4Z" stroke="#141C3A" stroke-width="8" fill="#141C3A"/><circle fill="#FFF" cx="39" cy="25" r="9"/><circle fill="#6E07F3" cx="69" cy="25" r="9"/><circle fill="#5BE9B9" cx="99" cy="25" r="9"/><g transform="translate(219 139)"><circle stroke="#6E07F3" stroke-width="9" cx="116" cy="116" r="100"/><path d="M129 4h-24v24h24V4ZM128 204h-24v24h24v-24ZM28 105H4v24h24v-24Z" stroke="#5BE9B9" stroke-width="8" fill="#FFFFFE"/><path stroke="#141C3A" stroke-width="8" stroke-linecap="square" d="M216 26v75M216 131v75"/><circle fill="#141C3A" cx="216" cy="23" r="12"/><circle fill="#141C3A" cx="216" cy="213" r="12"/><path d="M227 105h-24v24h24v-24Z" stroke="#5BE9B9" stroke-width="8" fill="#FFFFFE"/></g><g transform="translate(90 130)"><rect fill="#141C3A" width="70" height="70" rx="12"/><rect fill="#5BE9B9" y="90" width="70" height="70" rx="12"/><rect fill="#6E07F3" y="180" width="70" height="70" rx="12"/></g></g><g transform="translate(2253 800)" stroke="#141C3A" stroke-width="8"><g transform="translate(116 51)" fill="#FFF"><circle cx="60" cy="60" r="60"/><circle cx="60" cy="60" r="35"/></g><circle fill="#FFFFFE" cx="96" cy="20" r="20"/><path d="M177.93 15H8a3.987 3.987 0 0 0-2.828 1.172A3.987 3.987 0 0 0 4 19v168a19.937 19.937 0 0 0 5.858 14.142A19.937 19.937 0 0 0 24 207h137.93a19.937 19.937 0 0 0 14.142-5.858A19.937 19.937 0 0 0 181.93 187V19a3.987 3.987 0 0 0-1.172-2.828A3.987 3.987 0 0 0 177.93 15Z" fill="#FFF"/><path d="M133 69H97c-2.21 0-4.21.895-5.657 2.343A7.975 7.975 0 0 0 89 77v48c0 2.21.895 4.21 2.343 5.657A7.975 7.975 0 0 0 97 133h36c2.21 0 4.21-.895 5.657-2.343A7.975 7.975 0 0 0 141 125V77c0-2.21-.895-4.21-2.343-5.657A7.975 7.975 0 0 0 133 69Z" fill="#5BE9B9"/><path stroke-linecap="square" d="M114.5 16.5V62"/></g><g transform="translate(2080 948)"><path d="M63 4.2c-16.237 0-30.937 6.581-41.578 17.222C11.707 31.137 5.376 44.237 4.348 58.8h117.304c-1.028-14.563-7.359-27.663-17.074-37.378C93.938 10.782 79.238 4.2 63 4.2Z" stroke="#141C3A" stroke-width="8.4" fill="#FFF"/><rect fill="#141C3A" x="59" y="5" width="8" height="13" rx="4"/></g><path d="M305 889H63c-16.292 0-31.042 6.604-41.72 17.28C10.605 916.959 4 931.709 4 948c0 16.293 6.604 31.043 17.28 41.72 10.678 10.677 25.428 17.281 41.72 17.281h242a5.981 5.981 0 0 0 4.243-1.757A5.981 5.981 0 0 0 311 1001v-9.286a7.98 7.98 0 0 0-2.146-5.453 7.98 7.98 0 0 0-5.286-2.527c-13.843-.985-24.133-4.499-31.032-10.209-7.27-6.017-11.038-14.48-11.038-25.526 0-11.06 3.776-19.607 11.13-25.768 6.949-5.823 17.323-9.52 31.321-10.78a7.979 7.979 0 0 0 5.022-2.619A7.979 7.979 0 0 0 311 903.51V895a5.981 5.981 0 0 0-1.757-4.243A5.981 5.981 0 0 0 305 889Z" stroke="#141C3A" stroke-width="8" fill="#6E07F3"/><path d="M292.786 912H62c-9.941 0-18.941 4.03-25.456 10.544C30.03 929.06 26 938.06 26 948c0 9.941 4.03 18.941 10.544 25.456C43.06 979.97 52.06 984 62 984c108.896 0 186.328.208 232.297.623-8.047-2.173-17.274-5.253-23.827-11.982-5.263-5.406-8.972-13.103-8.972-24.641 0-11.647 3.779-19.373 9.12-24.76 6.132-6.183 14.558-9.198 22.168-11.24Z" stroke="#141C3A" stroke-width="8" fill="#FFF"/><path d="M57.925 957h202.15c2.168 0 3.925 1.79 3.925 4s-1.757 4-3.925 4H57.925c-2.168 0-3.925-1.79-3.925-4s1.757-4 3.925-4ZM57.925 931h202.15c2.168 0 3.925 1.79 3.925 4s-1.757 4-3.925 4H57.925c-2.168 0-3.925-1.79-3.925-4s1.757-4 3.925-4Z" fill="#141C3A"/><g fill="#141C3A" fill-rule="nonzero"><path d="m250.154 689.357-14.722-13.09c-7.821-6.944-15.62-13.912-23.44-20.857-1.793-1.58-3.586-3.183-5.356-4.764v6.3l14.723-13.09c7.82-6.944 15.619-13.912 23.44-20.857 1.792-1.58 3.585-3.183 5.355-4.764 1.748-1.558 1.726-4.741 0-6.3-1.86-1.713-4.46-1.669-6.341 0l-14.723 13.09c-7.821 6.945-15.62 13.912-23.44 20.857-1.793 1.581-3.586 3.184-5.356 4.764-1.725 1.536-1.725 4.764 0 6.3l14.723 13.089c7.82 6.945 15.619 13.913 23.44 20.858 1.792 1.58 3.585 3.183 5.356 4.763 1.747 1.559 4.638 1.848 6.341 0 1.569-1.691 1.86-4.63 0-6.3ZM324.886 618.246l14.723 13.089c7.82 6.945 15.619 13.913 23.44 20.858 1.792 1.58 3.585 3.183 5.355 4.763v-6.3l-14.722 13.09c-7.821 6.945-15.62 13.912-23.44 20.858-1.793 1.58-3.586 3.183-5.356 4.763-1.748 1.559-1.726 4.742 0 6.3 1.86 1.714 4.46 1.67 6.342 0l14.722-13.089c7.821-6.945 15.62-13.913 23.44-20.858 1.793-1.58 3.586-3.183 5.356-4.764 1.726-1.536 1.726-4.763 0-6.3l-14.723-13.088c-7.82-6.945-15.619-13.913-23.44-20.858-1.792-1.58-3.585-3.183-5.355-4.764-1.748-1.558-4.639-1.847-6.342 0-1.569 1.692-1.86 4.63 0 6.3ZM271.538 715.572c1.345-4.007 2.667-8.014 4.011-12.043 3.205-9.639 6.41-19.255 9.614-28.894 3.854-11.62 7.709-23.217 11.585-34.837l10.017-30.118c1.591-4.875 3.384-9.728 4.863-14.67l.067-.2c.74-2.204-.851-4.964-3.137-5.476-2.465-.557-4.728.734-5.513 3.116-1.344 4.007-2.666 8.014-4.011 12.043-3.204 9.639-6.409 19.255-9.613 28.894-3.855 11.62-7.71 23.217-11.586 34.837l-10.017 30.118c-1.59 4.853-3.384 9.706-4.863 14.648l-.067.2c-.74 2.204.852 4.964 3.137 5.476 2.465.557 4.729-.734 5.513-3.094Z"/></g></g></svg>